<svg xmlns="http://www.w3.org/2000/svg" aria-hidden="true" style="position:absolute;width:0;height:0;overflow:hidden">
  <defs>
    <symbol id="icon-facebook" viewBox="0 0 32 32">
      <path fill="#4d5ae5" d="M32 16A16 16 0 0 1 5 27 16 16 0 0 1 16 0c4 0 8 2 11 5s5 7 5 11z" style="fill:var(--color1, #4d5ae5)"/>
      <path fill="#f4f4fd" d="M18 12h1v-2h-1c-2 0-3 1-3 3v1h-2v3h2v5h2v-5h2v-3h-2v-1l1-1z" style="fill:var(--color2, #f4f4fd)"/>
    </symbol>
    <symbol id="icon-in" viewBox="0 0 32 32">
      <path fill="#4d5ae5" d="M32 16A16 16 0 0 1 5 27 16 16 0 0 1 16 0c4 0 8 2 11 5s5 7 5 11z" style="fill:var(--color1, #4d5ae5)"/>
      <path fill="#f4f4fd" d="M22 22v-4c0-3 0-4-3-4l-2 1v-1h-3v8h3v-4l1-2c2 0 2 1 2 2v4h2zm-12-8h2v8h-2v-8zm1-4-1 1 1 2 2-2-2-1z" style="fill:var(--color2, #f4f4fd)"/>
    </symbol>
    <symbol id="icon-insta" viewBox="0 0 32 32">
      <path fill="#4d5ae5" d="M32 16A16 16 0 0 1 5 27 16 16 0 0 1 16 0c4 0 8 2 11 5s5 7 5 11z" style="fill:var(--color1, #4d5ae5)"/>
      <path fill="#f4f4fd" d="M22 13v-1l-1-1-1-1h-1a43 43 0 0 0-7 0l-1 1-1 1v1a44 44 0 0 0 0 7l1 1 1 1h1a47 47 0 0 0 7 0l2-2v-7zm-1 6v1l-1 1h-1a45 45 0 0 1-7 0l-1-1v-1a45 45 0 0 1 0-7l1-1h1a45 45 0 0 1 7 0h1v8z" style="fill:var(--color2, #f4f4fd)"/>
      <path fill="#f4f4fd" d="M16 13a3 3 0 1 0 0 6 3 3 0 0 0 0-6zm0 5a2 2 0 1 1 0-4 2 2 0 0 1 0 4zm4-5a1 1 0 1 1-1 0 1 1 0 0 1 1 0z" style="fill:var(--color2, #f4f4fd)"/>
    </symbol>
    <symbol id="icon-twit" viewBox="0 0 32 32">
      <path fill="#4d5ae5" d="M32 16A16 16 0 0 1 5 27 16 16 0 0 1 16 0c4 0 8 2 11 5s5 7 5 11z" style="fill:var(--color1, #4d5ae5)"/>
      <path fill="#f4f4fd" d="M22 12h-1l1-1-2 1a3 3 0 0 0-4 2l-6-3v2l1 2-1-1c0 2 1 3 2 3a3 3 0 0 1-1 0l2 2a5 5 0 0 1-3 1l4 1a7 7 0 0 0 7-8l1-1z" style="fill:var(--color2, #f4f4fd)"/>
    </symbol>
  </defs>
</svg>